# This file uses centimeters as units for non-parametric coordinates.

mtllib cylinder.mtl
g default
v 0.923880 -0.500000 -0.382683
v 0.707107 -0.500000 -0.707106
v 0.382684 -0.500000 -0.923879
v 0.000001 -0.500000 -1.000000
v -0.382683 -0.500000 -0.923880
v -0.707106 -0.500000 -0.707107
v -0.923879 -0.500000 -0.382684
v -1.000000 -0.500000 0.000000
v -0.923880 -0.500000 0.382683
v -0.707107 -0.500000 0.707107
v -0.382684 -0.500000 0.923879
v 0.000000 -0.500000 1.000000
v 0.382683 -0.500000 0.923880
v 0.707107 -0.500000 0.707107
v 0.923880 -0.500000 0.382683
v 1.000000 -0.500000 0.000000
v 0.923880 0.500000 -0.382683
v 0.707107 0.500000 -0.707106
v 0.382684 0.500000 -0.923879
v 0.000001 0.500000 -1.000000
v -0.382683 0.500000 -0.923880
v -0.707106 0.500000 -0.707107
v -0.923879 0.500000 -0.382684
v -1.000000 0.500000 0.000000
v -0.923880 0.500000 0.382683
v -0.707107 0.500000 0.707107
v -0.382684 0.500000 0.923879
v 0.000000 0.500000 1.000000
v 0.382683 0.500000 0.923880
v 0.707107 0.500000 0.707107
v 0.923880 0.500000 0.382683
v 1.000000 0.500000 0.000000
v 0.000000 -0.500000 0.000000
v 0.000000 0.500000 0.000000
vt 0.001992 0.179770
vt 0.001992 0.120479
vt 0.476319 0.120479
vt 0.476319 0.179770
vt 0.001992 0.061188
vt 0.476319 0.061188
vt 0.001992 0.001897
vt 0.476319 0.001897
vt 0.001992 0.950552
vt 0.001992 0.891261
vt 0.476319 0.891261
vt 0.476319 0.950552
vt 0.001992 0.831970
vt 0.476319 0.831970
vt 0.001992 0.772679
vt 0.476319 0.772679
vt 0.001992 0.713388
vt 0.476319 0.713388
vt 0.001992 0.654097
vt 0.476319 0.654097
vt 0.001992 0.594806
vt 0.476319 0.594806
vt 0.001992 0.535515
vt 0.476319 0.535515
vt 0.001992 0.476225
vt 0.476319 0.476225
vt 0.001992 0.416934
vt 0.476319 0.416934
vt 0.001992 0.357643
vt 0.476319 0.357643
vt 0.001992 0.298352
vt 0.476319 0.298352
vt 0.001992 0.239061
vt 0.476319 0.239061
vt 0.549997 0.408576
vt 0.498587 0.331635
vt 0.717697 0.240876
vt 0.626939 0.459987
vt 0.717697 0.478040
vt 0.808456 0.459987
vt 0.885397 0.408576
vt 0.936808 0.331635
vt 0.954861 0.240876
vt 0.936808 0.150118
vt 0.885397 0.073176
vt 0.808456 0.021766
vt 0.717697 0.003713
vt 0.626939 0.021766
vt 0.549997 0.073176
vt 0.498587 0.150118
vt 0.480534 0.240876
vt 0.979955 0.802331
vt 0.928545 0.879273
vt 0.760844 0.711573
vt 0.851603 0.930683
vt 0.760845 0.948736
vt 0.670086 0.930684
vt 0.593144 0.879273
vt 0.541734 0.802332
vt 0.523681 0.711573
vt 0.541734 0.620814
vt 0.593144 0.543873
vt 0.670086 0.492462
vt 0.760844 0.474409
vt 0.851603 0.492462
vt 0.928544 0.543873
vt 0.979955 0.620814
vt 0.998008 0.711573
vn 0.923880 0.000000 -0.382683
vn 0.707107 0.000000 -0.707107
vn 0.923880 0.000000 -0.382683
vn 0.707107 0.000000 -0.707107
vn 0.707107 0.000000 -0.707107
vn 0.382684 0.000000 -0.923879
vn 0.707107 0.000000 -0.707107
vn 0.382684 0.000000 -0.923879
vn 0.382684 0.000000 -0.923879
vn 0.000001 0.000000 -1.000000
vn 0.382684 0.000000 -0.923879
vn 0.000001 0.000000 -1.000000
vn 0.000001 0.000000 -1.000000
vn -0.382683 0.000000 -0.923880
vn 0.000001 0.000000 -1.000000
vn -0.382683 0.000000 -0.923880
vn -0.382683 0.000000 -0.923880
vn -0.707106 0.000000 -0.707107
vn -0.382683 0.000000 -0.923880
vn -0.707106 0.000000 -0.707107
vn -0.707106 0.000000 -0.707107
vn -0.923879 0.000000 -0.382684
vn -0.707106 0.000000 -0.707107
vn -0.923879 0.000000 -0.382684
vn -0.923879 0.000000 -0.382684
vn -1.000000 0.000000 -0.000000
vn -0.923879 0.000000 -0.382684
vn -1.000000 0.000000 -0.000000
vn -1.000000 0.000000 -0.000000
vn -0.923880 0.000000 0.382683
vn -1.000000 0.000000 -0.000000
vn -0.923880 0.000000 0.382683
vn -0.923880 0.000000 0.382683
vn -0.707107 0.000000 0.707107
vn -0.923880 0.000000 0.382683
vn -0.707107 0.000000 0.707107
vn -0.707107 0.000000 0.707107
vn -0.382684 0.000000 0.923879
vn -0.707107 0.000000 0.707107
vn -0.382684 0.000000 0.923879
vn -0.382684 0.000000 0.923879
vn 0.000000 0.000000 1.000000
vn -0.382684 0.000000 0.923879
vn 0.000000 0.000000 1.000000
vn 0.000000 0.000000 1.000000
vn 0.382683 0.000000 0.923880
vn 0.000000 0.000000 1.000000
vn 0.382683 0.000000 0.923880
vn 0.382683 0.000000 0.923880
vn 0.707107 0.000000 0.707107
vn 0.382683 0.000000 0.923880
vn 0.707107 0.000000 0.707107
vn 0.707107 0.000000 0.707107
vn 0.923879 0.000000 0.382684
vn 0.707107 0.000000 0.707107
vn 0.923879 0.000000 0.382684
vn 0.923879 0.000000 0.382684
vn 1.000000 0.000000 0.000000
vn 0.923879 0.000000 0.382684
vn 1.000000 0.000000 0.000000
vn 1.000000 0.000000 0.000000
vn 0.923880 0.000000 -0.382683
vn 1.000000 0.000000 0.000000
vn 0.923880 0.000000 -0.382683
vn 0.000000 -1.000000 0.000000
vn 0.000000 -1.000000 0.000000
vn 0.000000 -1.000000 0.000000
vn 0.000000 -1.000000 0.000000
vn 0.000000 -1.000000 0.000000
vn 0.000000 -1.000000 0.000000
vn 0.000000 -1.000000 0.000000
vn 0.000000 -1.000000 0.000000
vn 0.000000 -1.000000 0.000000
vn 0.000000 -1.000000 0.000000
vn 0.000000 -1.000000 0.000000
vn 0.000000 -1.000000 0.000000
vn 0.000000 -1.000000 0.000000
vn 0.000000 -1.000000 0.000000
vn 0.000000 -1.000000 0.000000
vn 0.000000 -1.000000 0.000000
vn 0.000000 -1.000000 0.000000
vn 0.000000 -1.000000 0.000000
vn 0.000000 -1.000000 0.000000
vn 0.000000 -1.000000 0.000000
vn 0.000000 -1.000000 0.000000
vn 0.000000 -1.000000 0.000000
vn 0.000000 -1.000000 0.000000
vn 0.000000 -1.000000 0.000000
vn 0.000000 -1.000000 0.000000
vn 0.000000 -1.000000 0.000000
vn 0.000000 -1.000000 0.000000
vn 0.000000 -1.000000 0.000000
vn 0.000000 -1.000000 0.000000
vn 0.000000 -1.000000 0.000000
vn 0.000000 -1.000000 0.000000
vn 0.000000 -1.000000 0.000000
vn 0.000000 -1.000000 0.000000
vn 0.000000 -1.000000 0.000000
vn 0.000000 -1.000000 0.000000
vn 0.000000 -1.000000 0.000000
vn 0.000000 -1.000000 0.000000
vn 0.000000 -1.000000 0.000000
vn 0.000000 -1.000000 0.000000
vn 0.000000 -1.000000 0.000000
vn 0.000000 -1.000000 0.000000
vn 0.000000 -1.000000 0.000000
vn 0.000000 -1.000000 0.000000
vn 0.000000 -1.000000 0.000000
vn 0.000000 -1.000000 0.000000
vn 0.000000 -1.000000 0.000000
vn 0.000000 -1.000000 0.000000
vn 0.000000 -1.000000 0.000000
vn 0.000000 1.000000 0.000000
vn 0.000000 1.000000 0.000000
vn 0.000000 1.000000 0.000000
vn 0.000000 1.000000 0.000000
vn 0.000000 1.000000 0.000000
vn 0.000000 1.000000 0.000000
vn 0.000000 1.000000 0.000000
vn 0.000000 1.000000 0.000000
vn 0.000000 1.000000 0.000000
vn 0.000000 1.000000 0.000000
vn 0.000000 1.000000 0.000000
vn 0.000000 1.000000 0.000000
vn 0.000000 1.000000 0.000000
vn 0.000000 1.000000 0.000000
vn 0.000000 1.000000 0.000000
vn 0.000000 1.000000 0.000000
vn 0.000000 1.000000 0.000000
vn 0.000000 1.000000 0.000000
vn 0.000000 1.000000 0.000000
vn 0.000000 1.000000 0.000000
vn 0.000000 1.000000 0.000000
vn 0.000000 1.000000 0.000000
vn 0.000000 1.000000 0.000000
vn 0.000000 1.000000 0.000000
vn 0.000000 1.000000 0.000000
vn 0.000000 1.000000 0.000000
vn 0.000000 1.000000 0.000000
vn 0.000000 1.000000 0.000000
vn 0.000000 1.000000 0.000000
vn 0.000000 1.000000 0.000000
vn 0.000000 1.000000 0.000000
vn 0.000000 1.000000 0.000000
vn 0.000000 1.000000 0.000000
vn 0.000000 1.000000 0.000000
vn 0.000000 1.000000 0.000000
vn 0.000000 1.000000 0.000000
vn 0.000000 1.000000 0.000000
vn 0.000000 1.000000 0.000000
vn 0.000000 1.000000 0.000000
vn 0.000000 1.000000 0.000000
vn 0.000000 1.000000 0.000000
vn 0.000000 1.000000 0.000000
vn 0.000000 1.000000 0.000000
vn 0.000000 1.000000 0.000000
vn 0.000000 1.000000 0.000000
vn 0.000000 1.000000 0.000000
vn 0.000000 1.000000 0.000000
vn 0.000000 1.000000 0.000000
s 1
g pCylinder1
usemtl initialShadingGroup1
f 1/1/1 2/2/2 17/4/3
f 17/4/3 2/2/2 18/3/4
s 2
f 2/2/5 3/5/6 18/3/7
f 18/3/7 3/5/6 19/6/8
s 3
f 3/5/9 4/7/10 19/6/11
f 19/6/11 4/7/10 20/8/12
s 4
f 4/9/13 5/10/14 20/12/15
f 20/12/15 5/10/14 21/11/16
s 5
f 5/10/17 6/13/18 21/11/19
f 21/11/19 6/13/18 22/14/20
s 6
f 6/13/21 7/15/22 22/14/23
f 22/14/23 7/15/22 23/16/24
s 7
f 7/15/25 8/17/26 23/16/27
f 23/16/27 8/17/26 24/18/28
s 8
f 8/17/29 9/19/30 24/18/31
f 24/18/31 9/19/30 25/20/32
s 9
f 9/19/33 10/21/34 25/20/35
f 25/20/35 10/21/34 26/22/36
s 10
f 10/21/37 11/23/38 26/22/39
f 26/22/39 11/23/38 27/24/40
s 11
f 11/23/41 12/25/42 27/24/43
f 27/24/43 12/25/42 28/26/44
s 12
f 12/25/45 13/27/46 28/26/47
f 28/26/47 13/27/46 29/28/48
s 13
f 13/27/49 14/29/50 29/28/51
f 29/28/51 14/29/50 30/30/52
s 14
f 14/29/53 15/31/54 30/30/55
f 30/30/55 15/31/54 31/32/56
s 15
f 15/31/57 16/33/58 31/32/59
f 31/32/59 16/33/58 32/34/60
s 16
f 16/33/61 1/1/62 32/34/63
f 32/34/63 1/1/62 17/4/64
s off
f 2/35/65 1/36/66 33/37/67
f 3/38/68 2/35/69 33/37/70
f 4/39/71 3/38/72 33/37/73
f 5/40/74 4/39/75 33/37/76
f 6/41/77 5/40/78 33/37/79
f 7/42/80 6/41/81 33/37/82
f 8/43/83 7/42/84 33/37/85
f 9/44/86 8/43/87 33/37/88
f 10/45/89 9/44/90 33/37/91
f 11/46/92 10/45/93 33/37/94
f 12/47/95 11/46/96 33/37/97
f 13/48/98 12/47/99 33/37/100
f 14/49/101 13/48/102 33/37/103
f 15/50/104 14/49/105 33/37/106
f 16/51/107 15/50/108 33/37/109
f 1/36/110 16/51/111 33/37/112
f 17/52/113 18/53/114 34/54/115
f 18/53/116 19/55/117 34/54/118
f 19/55/119 20/56/120 34/54/121
f 20/56/122 21/57/123 34/54/124
f 21/57/125 22/58/126 34/54/127
f 22/58/128 23/59/129 34/54/130
f 23/59/131 24/60/132 34/54/133
f 24/60/134 25/61/135 34/54/136
f 25/61/137 26/62/138 34/54/139
f 26/62/140 27/63/141 34/54/142
f 27/63/143 28/64/144 34/54/145
f 28/64/146 29/65/147 34/54/148
f 29/65/149 30/66/150 34/54/151
f 30/66/152 31/67/153 34/54/154
f 31/67/155 32/68/156 34/54/157
f 32/68/158 17/52/159 34/54/160
